<svg xmlns="http://www.w3.org/2000/svg" viewBox="0 0 1920 1080"><g transform="
          rotate(0 960 540) 
          translate(-0 -0)
          scale(1)
        "><rect width="1920" height="1080" fill="rgb(56, 56, 56)"></rect><g transform="translate(0, 0)"><path fill="rgb(50, 50, 50)" fill-opacity="1" d="M0,88.236L20,87.519C40,86.802,80,85.368,120,85.145C160,84.923,200,85.912,240,86.024C280,86.135,320,85.368,360,75.796C400,66.223,440,47.846,480,46.294C520,44.742,560,60.015,600,55.334C640,50.653,680,26.017,720,24.62C760,23.223,800,45.064,840,50.505C880,55.945,920,44.984,960,34.839C1000,24.694,1040,15.364,1080,20.18C1120,24.996,1160,43.957,1200,47.376C1240,50.795,1280,38.672,1320,32.604C1360,26.535,1400,26.523,1440,35.319C1480,44.115,1520,61.719,1560,71.174C1600,80.629,1640,81.935,1680,71.169C1720,60.403,1760,37.566,1800,28.156C1840,18.746,1880,22.763,1900,24.772L1920,26.78L1920,1080L1900,1080C1880,1080,1840,1080,1800,1080C1760,1080,1720,1080,1680,1080C1640,1080,1600,1080,1560,1080C1520,1080,1480,1080,1440,1080C1400,1080,1360,1080,1320,1080C1280,1080,1240,1080,1200,1080C1160,1080,1120,1080,1080,1080C1040,1080,1000,1080,960,1080C920,1080,880,1080,840,1080C800,1080,760,1080,720,1080C680,1080,640,1080,600,1080C560,1080,520,1080,480,1080C440,1080,400,1080,360,1080C320,1080,280,1080,240,1080C200,1080,160,1080,120,1080C80,1080,40,1080,20,1080L0,1080Z"></path></g><g transform="translate(0, 90)"><path fill="rgb(44, 44, 44)" fill-opacity="1" d="M0,67.56L20,70.379C40,73.199,80,78.838,120,75.129C160,71.42,200,58.363,240,45.078C280,31.793,320,18.281,360,10.841C400,3.402,440,2.035,480,10.27C520,18.504,560,36.339,600,41.946C640,47.552,680,40.928,720,34.044C760,27.16,800,20.016,840,18.064C880,16.112,920,19.353,960,21.652C1000,23.951,1040,25.308,1080,33.264C1120,41.22,1160,55.775,1200,65.688C1240,75.6,1280,80.869,1320,84.03C1360,87.19,1400,88.242,1440,82.156C1480,76.07,1520,62.845,1560,52.324C1600,41.802,1640,33.983,1680,27.159C1720,20.335,1760,14.506,1800,23.118C1840,31.731,1880,54.786,1900,66.314L1920,77.841L1920,990L1900,990C1880,990,1840,990,1800,990C1760,990,1720,990,1680,990C1640,990,1600,990,1560,990C1520,990,1480,990,1440,990C1400,990,1360,990,1320,990C1280,990,1240,990,1200,990C1160,990,1120,990,1080,990C1040,990,1000,990,960,990C920,990,880,990,840,990C800,990,760,990,720,990C680,990,640,990,600,990C560,990,520,990,480,990C440,990,400,990,360,990C320,990,280,990,240,990C200,990,160,990,120,990C80,990,40,990,20,990L0,990Z"></path></g><g transform="translate(0, 180)"><path fill="rgb(38, 38, 38)" fill-opacity="1" d="M0,88.209L20,88.332C40,88.454,80,88.699,120,83.57C160,78.441,200,67.938,240,61.379C280,54.82,320,52.206,360,46.865C400,41.523,440,33.454,480,39.827C520,46.201,560,67.016,600,75.697C640,84.377,680,80.923,720,79.941C760,78.959,800,80.449,840,78.72C880,76.991,920,72.042,960,59.697C1000,47.352,1040,27.61,1080,29.975C1120,32.339,1160,56.808,1200,62.368C1240,67.927,1280,54.577,1320,43.224C1360,31.872,1400,22.517,1440,22.324C1480,22.132,1520,31.1,1560,43.598C1600,56.096,1640,72.124,1680,73.085C1720,74.046,1760,59.941,1800,51.63C1840,43.318,1880,40.8,1900,39.541L1920,38.282L1920,900L1900,900C1880,900,1840,900,1800,900C1760,900,1720,900,1680,900C1640,900,1600,900,1560,900C1520,900,1480,900,1440,900C1400,900,1360,900,1320,900C1280,900,1240,900,1200,900C1160,900,1120,900,1080,900C1040,900,1000,900,960,900C920,900,880,900,840,900C800,900,760,900,720,900C680,900,640,900,600,900C560,900,520,900,480,900C440,900,400,900,360,900C320,900,280,900,240,900C200,900,160,900,120,900C80,900,40,900,20,900L0,900Z"></path></g><g transform="translate(0, 270)"><path fill="rgb(33, 33, 33)" fill-opacity="1" d="M0,5.682L20,5.553C40,5.424,80,5.167,120,10.059C160,14.952,200,24.995,240,38.606C280,52.217,320,69.396,360,75.221C400,81.046,440,75.517,480,63.138C520,50.758,560,31.527,600,33.894C640,36.26,680,60.222,720,63.966C760,67.709,800,51.232,840,47.371C880,43.509,920,52.263,960,52.802C1000,53.341,1040,45.666,1080,46.568C1120,47.469,1160,56.947,1200,61.557C1240,66.168,1280,65.911,1320,61.489C1360,57.067,1400,48.48,1440,46.002C1480,43.524,1520,47.156,1560,48.93C1600,50.705,1640,50.624,1680,49.741C1720,48.858,1760,47.173,1800,45.694C1840,44.216,1880,42.943,1900,42.307L1920,41.671L1920,810L1900,810C1880,810,1840,810,1800,810C1760,810,1720,810,1680,810C1640,810,1600,810,1560,810C1520,810,1480,810,1440,810C1400,810,1360,810,1320,810C1280,810,1240,810,1200,810C1160,810,1120,810,1080,810C1040,810,1000,810,960,810C920,810,880,810,840,810C800,810,760,810,720,810C680,810,640,810,600,810C560,810,520,810,480,810C440,810,400,810,360,810C320,810,280,810,240,810C200,810,160,810,120,810C80,810,40,810,20,810L0,810Z"></path></g><g transform="translate(0, 360)"><path fill="rgb(28, 28, 28)" fill-opacity="1" d="M0,9.166L20,8.114C40,7.061,80,4.956,120,7.962C160,10.968,200,19.086,240,24.189C280,29.292,320,31.38,360,31.854C400,32.327,440,31.185,480,33.853C520,36.521,560,42.998,600,47.666C640,52.334,680,55.191,720,59.665C760,64.139,800,70.229,840,69.189C880,68.149,920,59.979,960,51.531C1000,43.083,1040,34.357,1080,34.575C1120,34.792,1160,43.954,1200,42.498C1240,41.043,1280,28.972,1320,32.248C1360,35.524,1400,54.148,1440,57.804C1480,61.459,1520,50.147,1560,52.667C1600,55.187,1640,71.54,1680,78.433C1720,85.325,1760,82.756,1800,75.545C1840,68.334,1880,56.481,1900,50.554L1920,44.628L1920,720L1900,720C1880,720,1840,720,1800,720C1760,720,1720,720,1680,720C1640,720,1600,720,1560,720C1520,720,1480,720,1440,720C1400,720,1360,720,1320,720C1280,720,1240,720,1200,720C1160,720,1120,720,1080,720C1040,720,1000,720,960,720C920,720,880,720,840,720C800,720,760,720,720,720C680,720,640,720,600,720C560,720,520,720,480,720C440,720,400,720,360,720C320,720,280,720,240,720C200,720,160,720,120,720C80,720,40,720,20,720L0,720Z"></path></g><g transform="translate(0, 450)"><path fill="rgb(23, 23, 23)" fill-opacity="1" d="M0,75.824L20,69.77C40,63.717,80,51.609,120,46.631C160,41.652,200,43.803,240,39.093C280,34.384,320,22.815,360,24.697C400,26.579,440,41.913,480,40.059C520,38.204,560,19.162,600,16.242C640,13.322,680,26.523,720,38.731C760,50.938,800,62.152,840,55.703C880,49.254,920,25.142,960,23.803C1000,22.464,1040,43.899,1080,47.286C1120,50.674,1160,36.014,1200,32.196C1240,28.377,1280,35.399,1320,37.486C1360,39.572,1400,36.722,1440,42.123C1480,47.523,1520,61.173,1560,56.722C1600,52.272,1640,29.72,1680,28.33C1720,26.939,1760,46.71,1800,53.171C1840,59.632,1880,52.784,1900,49.359L1920,45.935L1920,630L1900,630C1880,630,1840,630,1800,630C1760,630,1720,630,1680,630C1640,630,1600,630,1560,630C1520,630,1480,630,1440,630C1400,630,1360,630,1320,630C1280,630,1240,630,1200,630C1160,630,1120,630,1080,630C1040,630,1000,630,960,630C920,630,880,630,840,630C800,630,760,630,720,630C680,630,640,630,600,630C560,630,520,630,480,630C440,630,400,630,360,630C320,630,280,630,240,630C200,630,160,630,120,630C80,630,40,630,20,630L0,630Z"></path></g><g transform="translate(0, 540)"><path fill="rgb(18, 18, 18)" fill-opacity="1" d="M0,81.286L20,75.557C40,69.829,80,58.372,120,45.485C160,32.598,200,18.28,240,17.163C280,16.045,320,28.128,360,40.598C400,53.068,440,65.926,480,62.288C520,58.65,560,38.516,600,28.791C640,19.066,680,19.75,720,27.902C760,36.053,800,51.672,840,61.998C880,72.324,920,77.356,960,73.508C1000,69.659,1040,56.929,1080,55.984C1120,55.038,1160,65.877,1200,65.567C1240,65.256,1280,53.797,1320,52.944C1360,52.09,1400,61.844,1440,64.18C1480,66.517,1520,61.436,1560,54.436C1600,47.435,1640,38.515,1680,33.371C1720,28.226,1760,26.857,1800,22.636C1840,18.415,1880,11.341,1900,7.804L1920,4.268L1920,540L1900,540C1880,540,1840,540,1800,540C1760,540,1720,540,1680,540C1640,540,1600,540,1560,540C1520,540,1480,540,1440,540C1400,540,1360,540,1320,540C1280,540,1240,540,1200,540C1160,540,1120,540,1080,540C1040,540,1000,540,960,540C920,540,880,540,840,540C800,540,760,540,720,540C680,540,640,540,600,540C560,540,520,540,480,540C440,540,400,540,360,540C320,540,280,540,240,540C200,540,160,540,120,540C80,540,40,540,20,540L0,540Z"></path></g><g transform="translate(0, 630)"><path fill="rgb(14, 14, 14)" fill-opacity="1" d="M0,77.06L20,78.466C40,79.872,80,82.685,120,72.291C160,61.897,200,38.295,240,26.3C280,14.305,320,13.916,360,12.911C400,11.906,440,10.285,480,12.608C520,14.93,560,21.195,600,24.982C640,28.769,680,30.076,720,28.867C760,27.657,800,23.93,840,21.774C880,19.618,920,19.032,960,22.826C1000,26.621,1040,34.796,1080,41.591C1120,48.387,1160,53.804,1200,61.504C1240,69.204,1280,79.188,1320,71.721C1360,64.254,1400,39.338,1440,26.966C1480,14.593,1520,14.766,1560,15.211C1600,15.655,1640,16.372,1680,26.031C1720,35.69,1760,54.291,1800,59.86C1840,65.429,1880,57.966,1900,54.235L1920,50.503L1920,450L1900,450C1880,450,1840,450,1800,450C1760,450,1720,450,1680,450C1640,450,1600,450,1560,450C1520,450,1480,450,1440,450C1400,450,1360,450,1320,450C1280,450,1240,450,1200,450C1160,450,1120,450,1080,450C1040,450,1000,450,960,450C920,450,880,450,840,450C800,450,760,450,720,450C680,450,640,450,600,450C560,450,520,450,480,450C440,450,400,450,360,450C320,450,280,450,240,450C200,450,160,450,120,450C80,450,40,450,20,450L0,450Z"></path></g><g transform="translate(0, 720)"><path fill="rgb(10, 10, 10)" fill-opacity="1" d="M0,51.889L20,47.956C40,44.022,80,36.155,120,41.854C160,47.553,200,66.817,240,62.137C280,57.458,320,28.834,360,20.042C400,11.25,440,22.29,480,23.242C520,24.193,560,15.057,600,19.418C640,23.78,680,41.639,720,47.613C760,53.587,800,47.675,840,39.081C880,30.488,920,19.212,960,20.007C1000,20.803,1040,33.669,1080,38.902C1120,44.135,1160,41.735,1200,46.086C1240,50.437,1280,61.539,1320,60.046C1360,58.553,1400,44.465,1440,38.647C1480,32.83,1520,35.283,1560,42.661C1600,50.039,1640,62.342,1680,58.207C1720,54.072,1760,33.5,1800,26.278C1840,19.056,1880,25.184,1900,28.248L1920,31.312L1920,360L1900,360C1880,360,1840,360,1800,360C1760,360,1720,360,1680,360C1640,360,1600,360,1560,360C1520,360,1480,360,1440,360C1400,360,1360,360,1320,360C1280,360,1240,360,1200,360C1160,360,1120,360,1080,360C1040,360,1000,360,960,360C920,360,880,360,840,360C800,360,760,360,720,360C680,360,640,360,600,360C560,360,520,360,480,360C440,360,400,360,360,360C320,360,280,360,240,360C200,360,160,360,120,360C80,360,40,360,20,360L0,360Z"></path></g><g transform="translate(0, 810)"><path fill="rgb(7, 7, 7)" fill-opacity="1" d="M0,61.784L20,64.854C40,67.925,80,74.067,120,76.745C160,79.424,200,78.64,240,65.546C280,52.452,320,27.048,360,18.914C400,10.781,440,19.919,480,25.689C520,31.459,560,33.861,600,35.396C640,36.931,680,37.598,720,45.132C760,52.665,800,67.065,840,66.748C880,66.432,920,51.398,960,48.481C1000,45.564,1040,54.765,1080,55.607C1120,56.449,1160,48.933,1200,41.049C1240,33.166,1280,24.915,1320,29.89C1360,34.866,1400,53.069,1440,61.819C1480,70.569,1520,69.866,1560,62.814C1600,55.762,1640,42.361,1680,38.305C1720,34.249,1760,39.538,1800,38.167C1840,36.796,1880,28.767,1900,24.752L1920,20.737L1920,270L1900,270C1880,270,1840,270,1800,270C1760,270,1720,270,1680,270C1640,270,1600,270,1560,270C1520,270,1480,270,1440,270C1400,270,1360,270,1320,270C1280,270,1240,270,1200,270C1160,270,1120,270,1080,270C1040,270,1000,270,960,270C920,270,880,270,840,270C800,270,760,270,720,270C680,270,640,270,600,270C560,270,520,270,480,270C440,270,400,270,360,270C320,270,280,270,240,270C200,270,160,270,120,270C80,270,40,270,20,270L0,270Z"></path></g><g transform="translate(0, 900)"><path fill="rgb(3, 3, 3)" fill-opacity="1" d="M0,80.088L20,79.548C40,79.009,80,77.93,120,71.547C160,65.165,200,53.479,240,53.651C280,53.822,320,65.852,360,68.38C400,70.908,440,63.934,480,55.902C520,47.869,560,38.777,600,43.623C640,48.468,680,67.25,720,68.567C760,69.884,800,53.736,840,48.071C880,42.406,920,47.225,960,45.503C1000,43.782,1040,35.52,1080,41.454C1120,47.387,1160,67.516,1200,74.627C1240,81.739,1280,75.833,1320,66.5C1360,57.166,1400,44.406,1440,39.234C1480,34.063,1520,36.481,1560,38.517C1600,40.554,1640,42.209,1680,44.81C1720,47.411,1760,50.959,1800,51.178C1840,51.396,1880,48.284,1900,46.729L1920,45.173L1920,180L1900,180C1880,180,1840,180,1800,180C1760,180,1720,180,1680,180C1640,180,1600,180,1560,180C1520,180,1480,180,1440,180C1400,180,1360,180,1320,180C1280,180,1240,180,1200,180C1160,180,1120,180,1080,180C1040,180,1000,180,960,180C920,180,880,180,840,180C800,180,760,180,720,180C680,180,640,180,600,180C560,180,520,180,480,180C440,180,400,180,360,180C320,180,280,180,240,180C200,180,160,180,120,180C80,180,40,180,20,180L0,180Z"></path></g><g transform="translate(0, 990)"><path fill="rgb(0, 0, 0)" fill-opacity="1" d="M0,36.611L20,41.975C40,47.338,80,58.065,120,60.875C160,63.684,200,58.576,240,49.653C280,40.731,320,27.994,360,24.251C400,20.507,440,25.756,480,29.111C520,32.465,560,33.926,600,36.376C640,38.826,680,42.264,720,41.061C760,39.859,800,34.015,840,31.233C880,28.451,920,28.73,960,29.662C1000,30.594,1040,32.179,1080,32.204C1120,32.229,1160,30.694,1200,34.718C1240,38.742,1280,48.325,1320,46.193C1360,44.062,1400,30.214,1440,25.257C1480,20.299,1520,24.232,1560,30.746C1600,37.26,1640,46.356,1680,45.885C1720,45.414,1760,35.376,1800,30.688C1840,26,1880,26.662,1900,26.993L1920,27.324L1920,90L1900,90C1880,90,1840,90,1800,90C1760,90,1720,90,1680,90C1640,90,1600,90,1560,90C1520,90,1480,90,1440,90C1400,90,1360,90,1320,90C1280,90,1240,90,1200,90C1160,90,1120,90,1080,90C1040,90,1000,90,960,90C920,90,880,90,840,90C800,90,760,90,720,90C680,90,640,90,600,90C560,90,520,90,480,90C440,90,400,90,360,90C320,90,280,90,240,90C200,90,160,90,120,90C80,90,40,90,20,90L0,90Z"></path></g></g></svg>
