<svg xmlns="http://www.w3.org/2000/svg" viewBox="0 0 1920 1080"><g transform="
          rotate(0 960 540) 
          translate(-0 -0)
          scale(1)
        "><rect width="1920" height="1080" fill="rgb(0, 59, 138)"></rect><g transform="translate(0, 0)"><path fill="rgb(0, 54, 132)" fill-opacity="1" d="M0,88.236L35.556,87.519C71.111,86.802,142.222,85.368,213.333,85.145C284.444,84.923,355.556,85.912,426.667,86.024C497.778,86.135,568.889,85.368,640,75.796C711.111,66.223,782.222,47.846,853.333,46.294C924.444,44.742,995.556,60.015,1066.667,55.334C1137.778,50.653,1208.889,26.017,1280,24.62C1351.111,23.223,1422.222,45.064,1493.333,50.505C1564.444,55.945,1635.556,44.984,1706.667,34.839C1777.778,24.694,1848.889,15.364,1884.444,10.699L1920,6.034L1920,1080L1884.444,1080C1848.889,1080,1777.778,1080,1706.667,1080C1635.556,1080,1564.444,1080,1493.333,1080C1422.222,1080,1351.111,1080,1280,1080C1208.889,1080,1137.778,1080,1066.667,1080C995.556,1080,924.444,1080,853.333,1080C782.222,1080,711.111,1080,640,1080C568.889,1080,497.778,1080,426.667,1080C355.556,1080,284.444,1080,213.333,1080C142.222,1080,71.111,1080,35.556,1080L0,1080Z"></path></g><g transform="translate(0, 90)"><path fill="rgb(1, 49, 126)" fill-opacity="1" d="M0,62.919L35.556,56.857C71.111,50.795,142.222,38.672,213.333,32.604C284.444,26.535,355.556,26.523,426.667,35.319C497.778,44.115,568.889,61.719,640,71.174C711.111,80.629,782.222,81.935,853.333,71.169C924.444,60.403,995.556,37.566,1066.667,28.156C1137.778,18.746,1208.889,22.763,1280,31.568C1351.111,40.373,1422.222,53.966,1493.333,63.582C1564.444,73.199,1635.556,78.838,1706.667,75.129C1777.778,71.42,1848.889,58.363,1884.444,51.835L1920,45.306L1920,990L1884.444,990C1848.889,990,1777.778,990,1706.667,990C1635.556,990,1564.444,990,1493.333,990C1422.222,990,1351.111,990,1280,990C1208.889,990,1137.778,990,1066.667,990C995.556,990,924.444,990,853.333,990C782.222,990,711.111,990,640,990C568.889,990,497.778,990,426.667,990C355.556,990,284.444,990,213.333,990C142.222,990,71.111,990,35.556,990L0,990Z"></path></g><g transform="translate(0, 180)"><path fill="rgb(2, 44, 120)" fill-opacity="1" d="M0,4.768L35.556,4.085C71.111,3.402,142.222,2.035,213.333,10.27C284.444,18.504,355.556,36.339,426.667,41.946C497.778,47.552,568.889,40.928,640,34.044C711.111,27.16,782.222,20.016,853.333,18.064C924.444,16.112,995.556,19.353,1066.667,21.652C1137.778,23.951,1208.889,25.308,1280,33.264C1351.111,41.22,1422.222,55.775,1493.333,65.688C1564.444,75.6,1635.556,80.869,1706.667,84.03C1777.778,87.19,1848.889,88.242,1884.444,88.768L1920,89.294L1920,900L1884.444,900C1848.889,900,1777.778,900,1706.667,900C1635.556,900,1564.444,900,1493.333,900C1422.222,900,1351.111,900,1280,900C1208.889,900,1137.778,900,1066.667,900C995.556,900,924.444,900,853.333,900C782.222,900,711.111,900,640,900C568.889,900,497.778,900,426.667,900C355.556,900,284.444,900,213.333,900C142.222,900,71.111,900,35.556,900L0,900Z"></path></g><g transform="translate(0, 270)"><path fill="rgb(2, 39, 113)" fill-opacity="1" d="M0,49.621L35.556,45.711C71.111,41.802,142.222,33.983,213.333,27.159C284.444,20.335,355.556,14.506,426.667,23.118C497.778,31.731,568.889,54.786,640,68.042C711.111,81.297,782.222,84.753,853.333,86.604C924.444,88.454,995.556,88.699,1066.667,83.57C1137.778,78.441,1208.889,67.938,1280,61.379C1351.111,54.82,1422.222,52.206,1493.333,46.865C1564.444,41.523,1635.556,33.454,1706.667,39.827C1777.778,46.201,1848.889,67.016,1884.444,77.424L1920,87.832L1920,810L1884.444,810C1848.889,810,1777.778,810,1706.667,810C1635.556,810,1564.444,810,1493.333,810C1422.222,810,1351.111,810,1280,810C1208.889,810,1137.778,810,1066.667,810C995.556,810,924.444,810,853.333,810C782.222,810,711.111,810,640,810C568.889,810,497.778,810,426.667,810C355.556,810,284.444,810,213.333,810C142.222,810,71.111,810,35.556,810L0,810Z"></path></g><g transform="translate(0, 360)"><path fill="rgb(2, 34, 107)" fill-opacity="1" d="M0,77.468L35.556,78.214C71.111,78.959,142.222,80.449,213.333,78.72C284.444,76.991,355.556,72.042,426.667,59.697C497.778,47.352,568.889,27.61,640,29.975C711.111,32.339,782.222,56.808,853.333,62.368C924.444,67.927,995.556,54.577,1066.667,43.224C1137.778,31.872,1208.889,22.517,1280,22.324C1351.111,22.132,1422.222,31.1,1493.333,43.598C1564.444,56.096,1635.556,72.124,1706.667,73.085C1777.778,74.046,1848.889,59.941,1884.444,52.889L1920,45.837L1920,720L1884.444,720C1848.889,720,1777.778,720,1706.667,720C1635.556,720,1564.444,720,1493.333,720C1422.222,720,1351.111,720,1280,720C1208.889,720,1137.778,720,1066.667,720C995.556,720,924.444,720,853.333,720C782.222,720,711.111,720,640,720C568.889,720,497.778,720,426.667,720C355.556,720,284.444,720,213.333,720C142.222,720,71.111,720,35.556,720L0,720Z"></path></g><g transform="translate(0, 450)"><path fill="rgb(3, 30, 101)" fill-opacity="1" d="M0,38.282L35.556,32.848C71.111,27.415,142.222,16.548,213.333,10.986C284.444,5.424,355.556,5.167,426.667,10.059C497.778,14.952,568.889,24.995,640,38.606C711.111,52.217,782.222,69.396,853.333,75.221C924.444,81.046,995.556,75.517,1066.667,63.138C1137.778,50.758,1208.889,31.527,1280,33.894C1351.111,36.26,1422.222,60.222,1493.333,63.966C1564.444,67.709,1635.556,51.232,1706.667,47.371C1777.778,43.509,1848.889,52.263,1884.444,56.639L1920,61.016L1920,630L1884.444,630C1848.889,630,1777.778,630,1706.667,630C1635.556,630,1564.444,630,1493.333,630C1422.222,630,1351.111,630,1280,630C1208.889,630,1137.778,630,1066.667,630C995.556,630,924.444,630,853.333,630C782.222,630,711.111,630,640,630C568.889,630,497.778,630,426.667,630C355.556,630,284.444,630,213.333,630C142.222,630,71.111,630,35.556,630L0,630Z"></path></g><g transform="translate(0, 540)"><path fill="rgb(4, 25, 95)" fill-opacity="1" d="M0,37.991L35.556,42.73C71.111,47.469,142.222,56.947,213.333,61.557C284.444,66.168,355.556,65.911,426.667,61.489C497.778,57.067,568.889,48.48,640,46.002C711.111,43.524,782.222,47.156,853.333,48.93C924.444,50.705,995.556,50.624,1066.667,49.741C1137.778,48.858,1208.889,47.173,1280,45.694C1351.111,44.216,1422.222,42.943,1493.333,36.89C1564.444,30.836,1635.556,20.001,1706.667,13.531C1777.778,7.061,1848.889,4.956,1884.444,3.904L1920,2.851L1920,540L1884.444,540C1848.889,540,1777.778,540,1706.667,540C1635.556,540,1564.444,540,1493.333,540C1422.222,540,1351.111,540,1280,540C1208.889,540,1137.778,540,1066.667,540C995.556,540,924.444,540,853.333,540C782.222,540,711.111,540,640,540C568.889,540,497.778,540,426.667,540C355.556,540,284.444,540,213.333,540C142.222,540,71.111,540,35.556,540L0,540Z"></path></g><g transform="translate(0, 630)"><path fill="rgb(4, 20, 89)" fill-opacity="1" d="M0,27.203L35.556,28.247C71.111,29.292,142.222,31.38,213.333,31.854C284.444,32.327,355.556,31.185,426.667,33.853C497.778,36.521,568.889,42.998,640,47.666C711.111,52.334,782.222,55.191,853.333,59.665C924.444,64.139,995.556,70.229,1066.667,69.189C1137.778,68.149,1208.889,59.979,1280,51.531C1351.111,43.083,1422.222,34.357,1493.333,34.575C1564.444,34.792,1635.556,43.954,1706.667,42.498C1777.778,41.043,1848.889,28.972,1884.444,22.936L1920,16.9L1920,450L1884.444,450C1848.889,450,1777.778,450,1706.667,450C1635.556,450,1564.444,450,1493.333,450C1422.222,450,1351.111,450,1280,450C1208.889,450,1137.778,450,1066.667,450C995.556,450,924.444,450,853.333,450C782.222,450,711.111,450,640,450C568.889,450,497.778,450,426.667,450C355.556,450,284.444,450,213.333,450C142.222,450,71.111,450,35.556,450L0,450Z"></path></g><g transform="translate(0, 720)"><path fill="rgb(5, 15, 83)" fill-opacity="1" d="M0,72.772L35.556,67.116C71.111,61.459,142.222,50.147,213.333,52.667C284.444,55.187,355.556,71.54,426.667,78.433C497.778,85.325,568.889,82.756,640,75.545C711.111,68.334,782.222,56.481,853.333,55.754C924.444,55.026,995.556,65.425,1066.667,64.571C1137.778,63.717,1208.889,51.609,1280,46.631C1351.111,41.652,1422.222,43.803,1493.333,39.093C1564.444,34.384,1635.556,22.815,1706.667,24.697C1777.778,26.579,1848.889,41.913,1884.444,49.58L1920,57.246L1920,360L1884.444,360C1848.889,360,1777.778,360,1706.667,360C1635.556,360,1564.444,360,1493.333,360C1422.222,360,1351.111,360,1280,360C1208.889,360,1137.778,360,1066.667,360C995.556,360,924.444,360,853.333,360C782.222,360,711.111,360,640,360C568.889,360,497.778,360,426.667,360C355.556,360,284.444,360,213.333,360C142.222,360,71.111,360,35.556,360L0,360Z"></path></g><g transform="translate(0, 810)"><path fill="rgb(5, 10, 76)" fill-opacity="1" d="M0,0.12L35.556,6.721C71.111,13.322,142.222,26.523,213.333,38.731C284.444,50.938,355.556,62.152,426.667,55.703C497.778,49.254,568.889,25.142,640,23.803C711.111,22.464,782.222,43.899,853.333,47.286C924.444,50.674,995.556,36.014,1066.667,32.196C1137.778,28.377,1208.889,35.399,1280,37.486C1351.111,39.572,1422.222,36.722,1493.333,42.123C1564.444,47.523,1635.556,61.173,1706.667,56.722C1777.778,52.272,1848.889,29.72,1884.444,18.445L1920,7.169L1920,270L1884.444,270C1848.889,270,1777.778,270,1706.667,270C1635.556,270,1564.444,270,1493.333,270C1422.222,270,1351.111,270,1280,270C1208.889,270,1137.778,270,1066.667,270C995.556,270,924.444,270,853.333,270C782.222,270,711.111,270,640,270C568.889,270,497.778,270,426.667,270C355.556,270,284.444,270,213.333,270C142.222,270,71.111,270,35.556,270L0,270Z"></path></g><g transform="translate(0, 900)"><path fill="rgb(6, 5, 70)" fill-opacity="1" d="M0,66.48L35.556,63.056C71.111,59.632,142.222,52.784,213.333,55.251C284.444,57.719,355.556,69.502,426.667,69.665C497.778,69.829,568.889,58.372,640,45.485C711.111,32.598,782.222,18.28,853.333,17.163C924.444,16.045,995.556,28.128,1066.667,40.598C1137.778,53.068,1208.889,65.926,1280,62.288C1351.111,58.65,1422.222,38.516,1493.333,28.791C1564.444,19.066,1635.556,19.75,1706.667,27.902C1777.778,36.053,1848.889,51.672,1884.444,59.482L1920,67.291L1920,180L1884.444,180C1848.889,180,1777.778,180,1706.667,180C1635.556,180,1564.444,180,1493.333,180C1422.222,180,1351.111,180,1280,180C1208.889,180,1137.778,180,1066.667,180C995.556,180,924.444,180,853.333,180C782.222,180,711.111,180,640,180C568.889,180,497.778,180,426.667,180C355.556,180,284.444,180,213.333,180C142.222,180,71.111,180,35.556,180L0,180Z"></path></g><g transform="translate(0, 990)"><path fill="rgb(6, 0, 64)" fill-opacity="1" d="M0,82.389L35.556,76.024C71.111,69.659,142.222,56.929,213.333,55.984C284.444,55.038,355.556,65.877,426.667,65.567C497.778,65.256,568.889,53.797,640,52.944C711.111,52.09,782.222,61.844,853.333,64.18C924.444,66.517,995.556,61.436,1066.667,54.436C1137.778,47.435,1208.889,38.515,1280,33.371C1351.111,28.226,1422.222,26.857,1493.333,22.636C1564.444,18.415,1635.556,11.341,1706.667,19.936C1777.778,28.532,1848.889,52.796,1884.444,64.928L1920,77.06L1920,90L1884.444,90C1848.889,90,1777.778,90,1706.667,90C1635.556,90,1564.444,90,1493.333,90C1422.222,90,1351.111,90,1280,90C1208.889,90,1137.778,90,1066.667,90C995.556,90,924.444,90,853.333,90C782.222,90,711.111,90,640,90C568.889,90,497.778,90,426.667,90C355.556,90,284.444,90,213.333,90C142.222,90,71.111,90,35.556,90L0,90Z"></path></g></g></svg>
